<?xml version="1.0" standalone="no"?>
<!DOCTYPE svg PUBLIC "-//W3C//DTD SVG 20010904//EN"
 "http://www.w3.org/TR/2001/REC-SVG-20010904/DTD/svg10.dtd">
<svg version="1.0" xmlns="http://www.w3.org/2000/svg"
 width="300.000000pt" height="300.000000pt" viewBox="0 0 300.000000 300.000000"
 preserveAspectRatio="xMidYMid meet">
<metadata>
Created by potrace 1.11, written by Peter Selinger 2001-2013
</metadata>
<g transform="translate(0.000000,300.000000) scale(0.100000,-0.100000)"
fill="#000000" stroke="none">
<path d="M335 2436 c-5 -3 -45 -7 -87 -11 -43 -4 -78 -10 -78 -13 0 -4 53 -17
118 -30 161 -31 357 -99 526 -181 241 -118 436 -261 645 -476 l123 -127 -19
-21 c-191 -217 -322 -406 -428 -617 -56 -112 -117 -278 -131 -355 l-6 -40 29
40 c80 107 216 228 405 358 112 77 421 267 434 267 20 0 450 266 589 364 170
121 355 316 388 409 6 15 3 16 -21 10 -15 -5 -79 -7 -142 -6 -164 2 -400 52
-907 192 -406 112 -697 178 -958 216 -102 15 -457 30 -480 21z"/>
</g>
</svg>
